<svg xmlns="http://www.w3.org/2000/svg" viewBox="0 0 512 512" width="512" height="512">
  <defs>
    <linearGradient id="bgGradient" x1="0%" y1="0%" x2="100%" y2="100%">
      <stop offset="0%" style="stop-color:#667eea;stop-opacity:1" />
      <stop offset="100%" style="stop-color:#764ba2;stop-opacity:1" />
    </linearGradient>
    <linearGradient id="lockGradient" x1="0%" y1="0%" x2="100%" y2="100%">
      <stop offset="0%" style="stop-color:#ffffff;stop-opacity:1" />
      <stop offset="100%" style="stop-color:#f0f0f0;stop-opacity:1" />
    </linearGradient>
  </defs>
  
  <!-- Background circle -->
  <circle cx="256" cy="256" r="240" fill="url(#bgGradient)" stroke="#4a5568" stroke-width="8"/>
  
  <!-- Lock body -->
  <rect x="180" y="220" width="152" height="120" rx="20" ry="20" fill="url(#lockGradient)" stroke="#2d3748" stroke-width="4"/>
  
  <!-- Lock shackle -->
  <path d="M 200 220 L 200 180 Q 200 140 256 140 Q 312 140 312 180 L 312 220" 
        fill="none" stroke="url(#lockGradient)" stroke-width="16" stroke-linecap="round"/>
  
  <!-- Keyhole -->
  <circle cx="256" cy="270" r="12" fill="#2d3748"/>
  <rect x="250" y="270" width="12" height="20" fill="#2d3748"/>
  
  <!-- Security dots pattern -->
  <circle cx="220" cy="300" r="3" fill="#4a5568" opacity="0.6"/>
  <circle cx="240" cy="310" r="3" fill="#4a5568" opacity="0.6"/>
  <circle cx="272" cy="310" r="3" fill="#4a5568" opacity="0.6"/>
  <circle cx="292" cy="300" r="3" fill="#4a5568" opacity="0.6"/>
  
  <!-- Mnemonic word blocks -->
  <rect x="200" y="360" width="20" height="8" rx="2" fill="#48bb78" opacity="0.8"/>
  <rect x="225" y="360" width="20" height="8" rx="2" fill="#48bb78" opacity="0.8"/>
  <rect x="250" y="360" width="20" height="8" rx="2" fill="#48bb78" opacity="0.8"/>
  <rect x="275" y="360" width="15" height="8" rx="2" fill="#48bb78" opacity="0.8"/>
  
  <rect x="200" y="375" width="18" height="8" rx="2" fill="#48bb78" opacity="0.6"/>
  <rect x="225" y="375" width="22" height="8" rx="2" fill="#48bb78" opacity="0.6"/>
  <rect x="252" y="375" width="18" height="8" rx="2" fill="#48bb78" opacity="0.6"/>
  <rect x="275" y="375" width="20" height="8" rx="2" fill="#48bb78" opacity="0.6"/>
  
  <rect x="200" y="390" width="25" height="8" rx="2" fill="#48bb78" opacity="0.4"/>
  <rect x="230" y="390" width="18" height="8" rx="2" fill="#48bb78" opacity="0.4"/>
  <rect x="253" y="390" width="22" height="8" rx="2" fill="#48bb78" opacity="0.4"/>
  <rect x="280" y="390" width="16" height="8" rx="2" fill="#48bb78" opacity="0.4"/>
</svg>
